<svg xmlns="http://www.w3.org/2000/svg" version="1.1" xmlns:xlink="http://www.w3.org/1999/xlink" xmlns:svgjs="http://svgjs.dev/svgjs" width="1000" height="1000" viewBox="0 0 1000 1000"><rect width="1000" height="1000" fill="#ffffff"></rect><g transform="matrix(0.7,0,0,0.7,149.57575757575756,378.11878858984437)"><svg viewBox="0 0 396 138" data-background-color="#5e1914" preserveAspectRatio="xMidYMid meet" height="348" width="1000" xmlns="http://www.w3.org/2000/svg" xmlns:xlink="http://www.w3.org/1999/xlink"><g id="tight-bounds" transform="matrix(1,0,0,1,0.2400000000000091,0.04600646388124119)"><svg viewBox="0 0 395.52 137.9079870722375" height="137.9079870722375" width="395.52"><g><svg viewBox="0 0 652.7746329503046 227.6062794346561" height="137.9079870722375" width="395.52"><g transform="matrix(1,0,0,1,0,67.50401740606684)"><svg viewBox="0 0 395.52 92.59824462252243" height="92.59824462252243" width="395.52"><g id="textblocktransform"><svg viewBox="0 0 395.52 92.59824462252243" height="92.59824462252243" width="395.52" id="textblock"><g><svg viewBox="0 0 395.52 62.79408647140865" height="62.79408647140865" width="395.52"><g transform="matrix(1,0,0,1,0,0)"><svg width="395.52" viewBox="2.3 -33.3 216.32999999999998 34.15" height="62.79408647140865" data-palette-color="#ed1703"><g class="wordmark-text-0" data-fill-palette-color="primary" id="text-0"><path d="M29.15 0L29.15-0.5 29.4-0.5Q29.75-0.5 30.05-0.8 30.35-1.1 30.58-1.5 30.8-1.9 30.9-2.38 31-2.85 31-3.25L31-3.25 31-29.55 18.1 0.55 5.85-28 5.85-3.25Q5.85-2.85 5.95-2.38 6.05-1.9 6.28-1.5 6.5-1.1 6.8-0.8 7.1-0.5 7.5-0.5L7.5-0.5 7.75-0.5 7.75 0 2.3 0 2.3-0.5 2.55-0.5Q2.9-0.5 3.2-0.8 3.5-1.1 3.7-1.5 3.9-1.9 4-2.38 4.1-2.85 4.1-3.25L4.1-3.25 4.1-29.9Q4.1-30.25 4-30.7 3.9-31.15 3.7-31.55 3.5-31.95 3.2-32.23 2.9-32.5 2.55-32.5L2.55-32.5 2.3-32.5 2.3-33 7.4-33 19-5.65 30.6-33 36.25-33 36.25-32.5 36-32.5Q35.6-32.5 35.3-32.23 35-31.95 34.77-31.55 34.55-31.15 34.45-30.7 34.35-30.25 34.35-29.9L34.35-29.9 34.35-3.25Q34.35-2.85 34.45-2.38 34.55-1.9 34.77-1.5 35-1.1 35.3-0.8 35.6-0.5 36-0.5L36-0.5 36.25-0.5 36.25 0 29.15 0ZM51.6 0.35L51.6 0.35Q49.1 0.35 47.1-0.48 45.1-1.3 43.67-2.73 42.25-4.15 41.47-6.1 40.7-8.05 40.7-10.35L40.7-10.35Q40.7-12.8 41.55-14.83 42.4-16.85 43.9-18.3 45.4-19.75 47.45-20.55 49.5-21.35 51.9-21.35L51.9-21.35Q54.3-21.35 56.3-20.58 58.3-19.8 59.75-18.4 61.2-17 62-15.08 62.8-13.15 62.8-10.85L62.8-10.85Q62.8-8.7 62.07-6.68 61.35-4.65 59.92-3.1 58.5-1.55 56.42-0.6 54.35 0.35 51.6 0.35ZM51.3-19.7L51.3-19.7Q49.5-19.6 48.12-18.82 46.75-18.05 45.82-16.82 44.9-15.6 44.42-14.05 43.95-12.5 43.95-10.9L43.95-10.9Q43.95-9.05 44.52-7.33 45.1-5.6 46.17-4.25 47.25-2.9 48.75-2.1 50.25-1.3 52.1-1.3L52.1-1.3Q53.95-1.3 55.37-2.1 56.8-2.9 57.75-4.17 58.7-5.45 59.17-7.05 59.65-8.65 59.65-10.25L59.65-10.25Q59.65-11.9 59.15-13.58 58.65-15.25 57.6-16.63 56.55-18 54.97-18.85 53.4-19.7 51.3-19.7ZM82.55-21L87.45-21 87.45-20.5Q87.09-20.5 86.75-20.25 86.4-20 86.07-19.6 85.75-19.2 85.47-18.73 85.2-18.25 85-17.85L85-17.85 76.4 0.85 67.84-18.05Q67.5-18.85 66.95-19.68 66.4-20.5 65.55-20.5L65.55-20.5 65.55-21 72.4-21 72.4-20.5Q72.09-20.5 71.62-20.2 71.15-19.9 71.15-19.35L71.15-19.35Q71.15-19.1 71.55-18.2L71.55-18.2 77.3-5.25 83.5-18.75Q83.7-19.25 83.7-19.5L83.7-19.5Q83.7-19.95 83.27-20.23 82.84-20.5 82.55-20.5L82.55-20.5 82.55-21ZM97.74 0L91.24 0 91.24-0.5Q91.64-0.5 91.94-0.8 92.24-1.1 92.44-1.5 92.64-1.9 92.74-2.38 92.84-2.85 92.84-3.25L92.84-3.25 92.84-17.1Q92.84-17.95 92.59-18.73 92.34-19.5 91.14-19.55L91.14-19.55 91.14-20 96.14-21.6 96.14-3.25Q96.14-2.85 96.24-2.38 96.34-1.9 96.54-1.5 96.74-1.1 97.04-0.8 97.34-0.5 97.74-0.5L97.74-0.5 97.74 0ZM91.49-26.4L91.49-26.4Q91.49-27.4 92.17-28.1 92.84-28.8 93.84-28.8L93.84-28.8Q94.84-28.8 95.54-28.1 96.24-27.4 96.24-26.4L96.24-26.4Q96.24-25.4 95.54-24.75 94.84-24.1 93.84-24.1L93.84-24.1Q92.84-24.1 92.17-24.75 91.49-25.4 91.49-26.4ZM123.19-10.1L105.84-10.1Q106.04-8.35 106.69-6.78 107.34-5.2 108.42-4 109.49-2.8 111.04-2.08 112.59-1.35 114.64-1.35L114.64-1.35Q115.74-1.35 116.97-1.68 118.19-2 119.24-2.6 120.29-3.2 121.12-4.08 121.94-4.95 122.24-6.05L122.24-6.05 122.69-6.05 122.69-2.3Q122.39-2.3 122.02-2.1 121.64-1.9 121.14-1.6L121.14-1.6Q120.14-1 118.44-0.33 116.74 0.35 113.94 0.35L113.94 0.35Q111.69 0.35 109.67-0.3 107.64-0.95 106.09-2.3 104.54-3.65 103.62-5.75 102.69-7.85 102.69-10.75L102.69-10.75Q102.69-12.6 103.31-14.5 103.94-16.4 105.22-17.93 106.49-19.45 108.49-20.4 110.49-21.35 113.29-21.35L113.29-21.35Q115.79-21.35 117.67-20.5 119.54-19.65 120.77-18.15 121.99-16.65 122.59-14.6 123.19-12.55 123.19-10.1L123.19-10.1ZM113.09-19.7L113.09-19.7Q111.34-19.7 110.06-19 108.79-18.3 107.89-17.2 106.99-16.1 106.49-14.7 105.99-13.3 105.84-11.9L105.84-11.9 120.09-11.9Q120.04-13.35 119.56-14.75 119.09-16.15 118.24-17.25 117.39-18.35 116.09-19.03 114.79-19.7 113.09-19.7Z" fill="#000000" data-fill-palette-color="primary"></path><path d="M145.39-0.5L145.39-0.5 145.64-0.5 145.64 0 138.49 0 138.49-0.5 138.74-0.5Q139.14-0.5 139.44-0.78 139.74-1.05 139.96-1.45 140.19-1.85 140.29-2.3 140.39-2.75 140.39-3.15L140.39-3.15 140.39-29.9Q140.39-30.25 140.29-30.7 140.19-31.15 139.99-31.55 139.79-31.95 139.46-32.23 139.14-32.5 138.74-32.5L138.74-32.5 138.49-32.5 138.49-33 157.69-33 157.69-28.35 157.19-28.35Q157.19-29.5 156.41-30.38 155.64-31.25 153.99-31.25L153.99-31.25 143.74-31.25 143.74-18.6 152.04-18.6Q153.19-18.6 153.96-19.3 154.74-20 154.74-20.95L154.74-20.95 155.24-20.95 155.24-14.7 154.74-14.7Q154.74-15.6 153.99-16.25 153.24-16.9 152.04-16.9L152.04-16.9 143.74-16.9 143.74-3.15Q143.74-2.75 143.84-2.3 143.94-1.85 144.16-1.45 144.39-1.05 144.69-0.78 144.99-0.5 145.39-0.5ZM181.24-21.55L181.24-3.25Q181.24-2.9 181.34-2.43 181.44-1.95 181.61-1.53 181.79-1.1 182.09-0.8 182.39-0.5 182.79-0.5L182.79-0.5 182.79 0 177.94 0 177.94-2.75Q177.19-1.65 175.74-0.6 174.29 0.45 171.99 0.45L171.99 0.45Q169.09 0.45 167.39-0.55 165.69-1.55 164.79-3.1 163.89-4.65 163.64-6.48 163.39-8.3 163.39-9.9L163.39-9.9 163.39-17.05Q163.39-17.5 163.36-17.93 163.34-18.35 163.16-18.7 162.99-19.05 162.64-19.28 162.29-19.5 161.64-19.5L161.64-19.5 161.64-19.95 166.69-21.55 166.69-8.8Q166.69-5 168.34-3.2 169.99-1.4 172.39-1.4L172.39-1.4Q173.69-1.4 174.71-1.98 175.74-2.55 176.46-3.35 177.19-4.15 177.56-5 177.94-5.85 177.94-6.4L177.94-6.4 177.94-17.05Q177.94-17.5 177.91-17.93 177.89-18.35 177.71-18.7 177.54-19.05 177.19-19.28 176.84-19.5 176.19-19.5L176.19-19.5 176.19-19.95 181.24-21.55ZM207.73-10.1L190.38-10.1Q190.58-8.35 191.23-6.78 191.88-5.2 192.96-4 194.03-2.8 195.58-2.08 197.13-1.35 199.18-1.35L199.18-1.35Q200.28-1.35 201.51-1.68 202.73-2 203.78-2.6 204.83-3.2 205.66-4.08 206.48-4.95 206.78-6.05L206.78-6.05 207.23-6.05 207.23-2.3Q206.93-2.3 206.56-2.1 206.18-1.9 205.68-1.6L205.68-1.6Q204.68-1 202.98-0.33 201.28 0.35 198.48 0.35L198.48 0.35Q196.23 0.35 194.21-0.3 192.18-0.95 190.63-2.3 189.08-3.65 188.16-5.75 187.23-7.85 187.23-10.75L187.23-10.75Q187.23-12.6 187.86-14.5 188.48-16.4 189.76-17.93 191.03-19.45 193.03-20.4 195.03-21.35 197.83-21.35L197.83-21.35Q200.33-21.35 202.21-20.5 204.08-19.65 205.31-18.15 206.53-16.65 207.13-14.6 207.73-12.55 207.73-10.1L207.73-10.1ZM197.63-19.7L197.63-19.7Q195.88-19.7 194.61-19 193.33-18.3 192.43-17.2 191.53-16.1 191.03-14.7 190.53-13.3 190.38-11.9L190.38-11.9 204.63-11.9Q204.58-13.35 204.11-14.75 203.63-16.15 202.78-17.25 201.93-18.35 200.63-19.03 199.33-19.7 197.63-19.7ZM218.63 0L212.08 0 212.08-0.5Q212.48-0.5 212.78-0.8 213.08-1.1 213.31-1.5 213.53-1.9 213.63-2.38 213.73-2.85 213.73-3.25L213.73-3.25 213.73-28.85Q213.73-29.7 213.48-30.45 213.23-31.2 211.98-31.25L211.98-31.25 211.98-31.75 217.03-33.3 217.03-3.25Q217.03-2.85 217.13-2.38 217.23-1.9 217.46-1.5 217.68-1.1 217.96-0.8 218.23-0.5 218.63-0.5L218.63-0.5 218.63 0Z" fill="#000000" data-fill-palette-color="secondary"></path></g></svg></g></svg></g><g transform="matrix(1,0,0,1,163.310208,77.61826322923292)"><svg viewBox="0 0 232.209792 14.979981393289519" height="14.979981393289519" width="232.209792"><g transform="matrix(1,0,0,1,0,0)"><svg width="232.209792" viewBox="3.6 -36.7 578.14 37.300000000000004" height="14.979981393289519" data-palette-color="#ff908b"><path d="M12.2 0L3.6 0 3.6-32.5 24.8-32.5 24.8-25.3 12.2-25.3 12.2-19.1 23-19.1 23-11.9 12.2-11.9 12.2 0ZM36.3 0.6L36.3 0.6Q34.25 0.6 32.77-0.13 31.3-0.85 30.35-2.18 29.4-3.5 28.95-5.38 28.5-7.25 28.5-9.6L28.5-9.6 28.5-25 37.1-25 37.1-10.7Q37.1-8.3 37.7-7.5 38.3-6.7 39.6-6.7L39.6-6.7Q40.8-6.7 41.57-7.2 42.35-7.7 43.2-8.9L43.2-8.9 43.2-25 51.8-25 51.8 0 44.8 0 44.2-3.3 44-3.3Q42.5-1.5 40.67-0.45 38.85 0.6 36.3 0.6ZM69.2 0.6L69.2 0.6Q66.45 0.6 64.1-0.28 61.75-1.15 60.02-2.83 58.3-4.5 57.3-6.95 56.3-9.4 56.3-12.5L56.3-12.5Q56.3-15.55 57.32-17.98 58.35-20.4 60.02-22.1 61.7-23.8 63.85-24.7 66-25.6 68.3-25.6L68.3-25.6Q71.05-25.6 73.1-24.65 75.15-23.7 76.5-22.05 77.85-20.4 78.52-18.2 79.2-16 79.2-13.5L79.2-13.5Q79.2-12.35 79.07-11.35 78.95-10.35 78.85-9.9L78.85-9.9 64.6-9.9Q65.2-7.65 66.75-6.78 68.3-5.9 70.4-5.9L70.4-5.9Q71.7-5.9 72.92-6.28 74.15-6.65 75.5-7.4L75.5-7.4 78.3-2.3Q76.25-0.85 73.77-0.13 71.3 0.6 69.2 0.6ZM64.5-15.5L64.5-15.5 71.9-15.5Q71.9-16.95 71.17-18.03 70.45-19.1 68.5-19.1L68.5-19.1Q67.05-19.1 65.97-18.25 64.9-17.4 64.5-15.5ZM91.59 0.6L91.59 0.6Q89.39 0.6 87.92-0.08 86.44-0.75 85.54-2 84.64-3.25 84.27-4.98 83.89-6.7 83.89-8.8L83.89-8.8 83.89-34.8 92.49-34.8 92.49-8.5Q92.49-7.2 92.97-6.75 93.44-6.3 93.89-6.3L93.89-6.3Q94.14-6.3 94.32-6.3 94.49-6.3 94.79-6.4L94.79-6.4 95.79-0.1Q95.09 0.2 94.07 0.4 93.04 0.6 91.59 0.6ZM123.79 0L115.19 0 115.19-11.2 105.39-32.5 114.59-32.5 116.99-25.7Q117.59-23.85 118.19-22.1 118.79-20.35 119.44-18.45L119.44-18.45 119.64-18.45Q120.29-20.35 120.91-22.1 121.54-23.85 122.19-25.7L122.19-25.7 124.59-32.5 133.59-32.5 123.79-11.2 123.79 0ZM144.09 0.6L144.09 0.6Q141.69 0.6 139.44-0.28 137.19-1.15 135.46-2.83 133.74-4.5 132.71-6.95 131.69-9.4 131.69-12.5L131.69-12.5Q131.69-15.6 132.71-18.05 133.74-20.5 135.46-22.18 137.19-23.85 139.44-24.73 141.69-25.6 144.09-25.6L144.09-25.6Q146.49-25.6 148.71-24.73 150.94-23.85 152.66-22.18 154.39-20.5 155.44-18.05 156.49-15.6 156.49-12.5L156.49-12.5Q156.49-9.4 155.44-6.95 154.39-4.5 152.66-2.83 150.94-1.15 148.71-0.28 146.49 0.6 144.09 0.6ZM144.09-6.3L144.09-6.3Q146.04-6.3 146.86-7.98 147.69-9.65 147.69-12.5L147.69-12.5Q147.69-15.35 146.86-17.03 146.04-18.7 144.09-18.7L144.09-18.7Q142.14-18.7 141.31-17.03 140.49-15.35 140.49-12.5L140.49-12.5Q140.49-9.65 141.31-7.98 142.14-6.3 144.09-6.3ZM168.58 0.6L168.58 0.6Q166.53 0.6 165.06-0.13 163.58-0.85 162.63-2.18 161.68-3.5 161.23-5.38 160.78-7.25 160.78-9.6L160.78-9.6 160.78-25 169.38-25 169.38-10.7Q169.38-8.3 169.98-7.5 170.58-6.7 171.88-6.7L171.88-6.7Q173.08-6.7 173.86-7.2 174.63-7.7 175.48-8.9L175.48-8.9 175.48-25 184.08-25 184.08 0 177.08 0 176.48-3.3 176.28-3.3Q174.78-1.5 172.96-0.45 171.13 0.6 168.58 0.6ZM198.48 0L189.88 0 189.88-25 196.88-25 197.48-20.7 197.68-20.7Q199.08-23.25 201.01-24.43 202.93-25.6 204.78-25.6L204.78-25.6Q205.93-25.6 206.63-25.48 207.33-25.35 207.88-25.1L207.88-25.1 206.48-17.7Q205.78-17.85 205.16-17.98 204.53-18.1 203.68-18.1L203.68-18.1Q202.33-18.1 200.86-17.18 199.38-16.25 198.48-13.9L198.48-13.9 198.48 0ZM230.08 0L221.48 0 221.48-32.5 233.38-32.5Q236.03-32.5 238.43-31.98 240.83-31.45 242.63-30.18 244.43-28.9 245.5-26.83 246.58-24.75 246.58-21.7L246.58-21.7Q246.58-18.7 245.5-16.55 244.43-14.4 242.63-13.03 240.83-11.65 238.48-10.98 236.13-10.3 233.58-10.3L233.58-10.3 230.08-10.3 230.08 0ZM230.08-25.7L230.08-17.1 233.18-17.1Q235.73-17.1 236.95-18.3 238.18-19.5 238.18-21.7L238.18-21.7Q238.18-23.9 236.83-24.8 235.48-25.7 232.98-25.7L232.98-25.7 230.08-25.7ZM256.17 0.6L256.17 0.6Q254.42 0.6 253.02-0.03 251.62-0.65 250.65-1.7 249.67-2.75 249.17-4.15 248.67-5.55 248.67-7.1L248.67-7.1Q248.67-11 251.87-13.23 255.07-15.45 262.27-16.2L262.27-16.2Q261.97-18.8 258.77-18.8L258.77-18.8Q257.42-18.8 255.92-18.28 254.42-17.75 252.47-16.7L252.47-16.7 249.47-22.3Q252.12-23.9 254.82-24.75 257.52-25.6 260.47-25.6L260.47-25.6Q265.32-25.6 268.1-22.83 270.87-20.05 270.87-13.9L270.87-13.9 270.87 0 263.87 0 263.27-2.4 263.07-2.4Q261.57-1.05 259.9-0.23 258.22 0.6 256.17 0.6ZM259.17-6L259.17-6Q260.22-6 260.9-6.48 261.57-6.95 262.27-7.7L262.27-7.7 262.27-11.1Q259.17-10.65 258.02-9.75 256.87-8.85 256.87-7.8L256.87-7.8Q256.87-6 259.17-6ZM284.17 0.6L284.17 0.6Q281.77 0.6 279.1-0.35 276.42-1.3 274.47-2.9L274.47-2.9 278.27-8.2Q281.67-5.7 284.37-5.7L284.37-5.7Q285.72-5.7 286.3-6.08 286.87-6.45 286.87-7.2L286.87-7.2Q286.87-7.7 286.47-8.08 286.07-8.45 285.4-8.78 284.72-9.1 283.87-9.4 283.02-9.7 282.07-10.1L282.07-10.1Q280.97-10.55 279.85-11.18 278.72-11.8 277.82-12.7 276.92-13.6 276.35-14.78 275.77-15.95 275.77-17.5L275.77-17.5Q275.77-19.35 276.5-20.85 277.22-22.35 278.52-23.4 279.82-24.45 281.65-25.03 283.47-25.6 285.67-25.6L285.67-25.6Q288.77-25.6 291-24.58 293.22-23.55 294.87-22.3L294.87-22.3 291.07-17.2Q289.72-18.2 288.42-18.75 287.12-19.3 285.97-19.3L285.97-19.3Q283.77-19.3 283.77-17.9L283.77-17.9Q283.77-17.4 284.15-17.05 284.52-16.7 285.17-16.4 285.82-16.1 286.67-15.83 287.52-15.55 288.47-15.2L288.47-15.2Q289.57-14.8 290.72-14.2 291.87-13.6 292.8-12.73 293.72-11.85 294.3-10.63 294.87-9.4 294.87-7.7L294.87-7.7Q294.87-5.95 294.17-4.42 293.47-2.9 292.12-1.78 290.77-0.65 288.77-0.03 286.77 0.6 284.17 0.6ZM306.77 0.6L306.77 0.6Q304.37 0.6 301.69-0.35 299.02-1.3 297.07-2.9L297.07-2.9 300.87-8.2Q304.27-5.7 306.97-5.7L306.97-5.7Q308.32-5.7 308.89-6.08 309.47-6.45 309.47-7.2L309.47-7.2Q309.47-7.7 309.07-8.08 308.67-8.45 307.99-8.78 307.32-9.1 306.47-9.4 305.62-9.7 304.67-10.1L304.67-10.1Q303.57-10.55 302.44-11.18 301.32-11.8 300.42-12.7 299.52-13.6 298.94-14.78 298.37-15.95 298.37-17.5L298.37-17.5Q298.37-19.35 299.09-20.85 299.82-22.35 301.12-23.4 302.42-24.45 304.24-25.03 306.07-25.6 308.27-25.6L308.27-25.6Q311.37-25.6 313.59-24.58 315.82-23.55 317.47-22.3L317.47-22.3 313.67-17.2Q312.32-18.2 311.02-18.75 309.72-19.3 308.57-19.3L308.57-19.3Q306.37-19.3 306.37-17.9L306.37-17.9Q306.37-17.4 306.74-17.05 307.12-16.7 307.77-16.4 308.42-16.1 309.27-15.83 310.12-15.55 311.07-15.2L311.07-15.2Q312.17-14.8 313.32-14.2 314.47-13.6 315.39-12.73 316.32-11.85 316.89-10.63 317.47-9.4 317.47-7.7L317.47-7.7Q317.47-5.95 316.77-4.42 316.07-2.9 314.72-1.78 313.37-0.65 311.37-0.03 309.37 0.6 306.77 0.6ZM330.27 0L321.67 0 321.67-25 330.27-25 330.27 0ZM325.97-28.1L325.97-28.1Q323.87-28.1 322.52-29.3 321.17-30.5 321.17-32.4L321.17-32.4Q321.17-34.3 322.52-35.5 323.87-36.7 325.97-36.7L325.97-36.7Q328.07-36.7 329.42-35.5 330.77-34.3 330.77-32.4L330.77-32.4Q330.77-30.5 329.42-29.3 328.07-28.1 325.97-28.1ZM347.16 0.6L347.16 0.6Q344.76 0.6 342.51-0.28 340.26-1.15 338.54-2.83 336.81-4.5 335.79-6.95 334.76-9.4 334.76-12.5L334.76-12.5Q334.76-15.6 335.79-18.05 336.81-20.5 338.54-22.18 340.26-23.85 342.51-24.73 344.76-25.6 347.16-25.6L347.16-25.6Q349.56-25.6 351.79-24.73 354.01-23.85 355.74-22.18 357.46-20.5 358.51-18.05 359.56-15.6 359.56-12.5L359.56-12.5Q359.56-9.4 358.51-6.95 357.46-4.5 355.74-2.83 354.01-1.15 351.79-0.28 349.56 0.6 347.16 0.6ZM347.16-6.3L347.16-6.3Q349.11-6.3 349.94-7.98 350.76-9.65 350.76-12.5L350.76-12.5Q350.76-15.35 349.94-17.03 349.11-18.7 347.16-18.7L347.16-18.7Q345.21-18.7 344.39-17.03 343.56-15.35 343.56-12.5L343.56-12.5Q343.56-9.65 344.39-7.98 345.21-6.3 347.16-6.3ZM372.66 0L364.06 0 364.06-25 371.06-25 371.66-22 371.86-22Q373.36-23.45 375.29-24.53 377.21-25.6 379.76-25.6L379.76-25.6Q383.86-25.6 385.71-22.83 387.56-20.05 387.56-15.4L387.56-15.4 387.56 0 378.96 0 378.96-14.3Q378.96-16.7 378.36-17.5 377.76-18.3 376.46-18.3L376.46-18.3Q375.26-18.3 374.46-17.8 373.66-17.3 372.66-16.4L372.66-16.4 372.66 0ZM412.46 0L403.86 0 403.86-32.5 425.06-32.5 425.06-25.3 412.46-25.3 412.46-19.1 423.26-19.1 423.26-11.9 412.46-11.9 412.46 0ZM440.05 0.6L440.05 0.6Q437.65 0.6 435.4-0.28 433.15-1.15 431.43-2.83 429.7-4.5 428.68-6.95 427.65-9.4 427.65-12.5L427.65-12.5Q427.65-15.6 428.68-18.05 429.7-20.5 431.43-22.18 433.15-23.85 435.4-24.73 437.65-25.6 440.05-25.6L440.05-25.6Q442.45-25.6 444.68-24.73 446.9-23.85 448.63-22.18 450.35-20.5 451.4-18.05 452.45-15.6 452.45-12.5L452.45-12.5Q452.45-9.4 451.4-6.95 450.35-4.5 448.63-2.83 446.9-1.15 444.68-0.28 442.45 0.6 440.05 0.6ZM440.05-6.3L440.05-6.3Q442-6.3 442.83-7.98 443.65-9.65 443.65-12.5L443.65-12.5Q443.65-15.35 442.83-17.03 442-18.7 440.05-18.7L440.05-18.7Q438.1-18.7 437.28-17.03 436.45-15.35 436.45-12.5L436.45-12.5Q436.45-9.65 437.28-7.98 438.1-6.3 440.05-6.3ZM465.55 0L456.95 0 456.95-25 463.95-25 464.55-20.7 464.75-20.7Q466.15-23.25 468.08-24.43 470-25.6 471.85-25.6L471.85-25.6Q473-25.6 473.7-25.48 474.4-25.35 474.95-25.1L474.95-25.1 473.55-17.7Q472.85-17.85 472.23-17.98 471.6-18.1 470.75-18.1L470.75-18.1Q469.4-18.1 467.93-17.18 466.45-16.25 465.55-13.9L465.55-13.9 465.55 0ZM497.15 0L488.55 0 488.55-32.5 509.75-32.5 509.75-25.3 497.15-25.3 497.15-19.1 507.95-19.1 507.95-11.9 497.15-11.9 497.15 0ZM523.24 0L514.64 0 514.64-25 523.24-25 523.24 0ZM518.94-28.1L518.94-28.1Q516.84-28.1 515.49-29.3 514.14-30.5 514.14-32.4L514.14-32.4Q514.14-34.3 515.49-35.5 516.84-36.7 518.94-36.7L518.94-36.7Q521.04-36.7 522.39-35.5 523.74-34.3 523.74-32.4L523.74-32.4Q523.74-30.5 522.39-29.3 521.04-28.1 518.94-28.1ZM536.74 0.6L536.74 0.6Q534.54 0.6 533.07-0.08 531.59-0.75 530.69-2 529.79-3.25 529.42-4.98 529.04-6.7 529.04-8.8L529.04-8.8 529.04-34.8 537.64-34.8 537.64-8.5Q537.64-7.2 538.12-6.75 538.59-6.3 539.04-6.3L539.04-6.3Q539.29-6.3 539.47-6.3 539.64-6.3 539.94-6.4L539.94-6.4 540.94-0.1Q540.24 0.2 539.22 0.4 538.19 0.6 536.74 0.6ZM552.54 0L543.94 0 543.94-25 550.94-25 551.54-21.95 551.74-21.95Q553.24-23.4 554.96-24.5 556.69-25.6 559.24-25.6L559.24-25.6Q561.79-25.6 563.46-24.58 565.14-23.55 566.14-21.6L566.14-21.6Q567.69-23.2 569.49-24.4 571.29-25.6 573.84-25.6L573.84-25.6Q577.94-25.6 579.84-22.83 581.74-20.05 581.74-15.4L581.74-15.4 581.74 0 573.14 0 573.14-14.3Q573.14-16.7 572.54-17.5 571.94-18.3 570.64-18.3L570.64-18.3Q569.04-18.3 567.14-16.4L567.14-16.4 567.14 0 558.54 0 558.54-14.3Q558.54-16.7 557.94-17.5 557.34-18.3 556.04-18.3L556.04-18.3Q554.44-18.3 552.54-16.4L552.54-16.4 552.54 0Z" opacity="1" transform="matrix(1,0,0,1,0,0)" fill="#000000" class="slogan-text-1" data-fill-palette-color="secondary" id="text-1"></path></svg></g></svg></g></svg></g></svg></g><g transform="matrix(1,0,0,1,425.1683535156485,0)"><svg viewBox="0 0 227.6062794346561 227.6062794346561" height="227.6062794346561" width="227.6062794346561"><g><svg></svg></g><g id="icon-0"><svg viewBox="0 0 227.6062794346561 227.6062794346561" height="227.6062794346561" width="227.6062794346561"><g><path d="M0 113.803c0-62.852 50.951-113.803 113.803-113.803 62.852 0 113.803 50.951 113.803 113.803 0 62.852-50.951 113.803-113.803 113.803-62.852 0-113.803-50.951-113.803-113.803zM113.803 221.943c59.724 0 108.14-48.416 108.14-108.14 0-59.724-48.416-108.14-108.14-108.14-59.724 0-108.14 48.416-108.14 108.14 0 59.724 48.416 108.14 108.14 108.14z" data-fill-palette-color="accent" fill="#000000" stroke="transparent"></path></g><g transform="matrix(1,0,0,1,57.28270846085621,45.97835091040663)"><svg viewBox="0 0 113.04086251294368 135.64957761384284" height="135.64957761384284" width="113.04086251294368"><g><svg version="1.1" xmlns="http://www.w3.org/2000/svg" xmlns:xlink="http://www.w3.org/1999/xlink" x="0" y="0" viewBox="0 0 83.33300000000001 100" enable-background="new 0 0 83.333 100" xml:space="preserve" width="113.04086251294368" height="135.64957761384284" class="icon-z$-0" data-fill-palette-color="accent" id="z$-0"><path d="M72.221 33.333V16.667h-5.555l-5.555-5.555V5.555C61.112 2.478 58.632 0 55.554 0H5.555C2.478 0 0 2.478 0 5.555v88.89C0 97.222 2.778 100 5.555 100h49.999c2.779 0 5.558-2.778 5.558-5.555V66.667h2.776c2.778 0 2.778 2.778 2.778 2.778v11.109c0 5.558 2.778 8.333 8.333 8.333s8.334-2.775 8.334-8.333c0-6.48 0-25 0-30.555C83.333 44.445 72.221 38.889 72.221 33.333zM50 33.333H11.111V11.111H50V33.333zM77.779 80.555c0 2.778-2.779 2.778-2.779 2.778s-2.778 0-2.778-2.778c0 0 0-11.109 0-13.888 0-2.779-2.776-5.555-5.555-5.555-1.852 0-5.555 0-5.555 0V27.778h5.555c0 0 0 4.63 0 8.333 0 5.555 11.112 11.111 11.112 16.667V80.555z" fill="#000000" data-fill-palette-color="accent"></path></svg></g></svg></g></svg></g></svg></g></svg></g><defs></defs></svg><rect width="395.52" height="137.9079870722375" fill="none" stroke="none" visibility="hidden"></rect></g></svg></g></svg>